<svg xmlns="http://www.w3.org/2000/svg" xmlns:xlink="http://www.w3.org/1999/xlink" width="128" zoomAndPan="magnify" viewBox="0 0 96 95.999999" height="128" preserveAspectRatio="xMidYMid meet" version="1.0"><defs><clipPath id="36fc7e5ff9"><path d="M 22.234375 9.601562 L 73.984375 9.601562 L 73.984375 89.101562 L 22.234375 89.101562 Z M 22.234375 9.601562 " clip-rule="nonzero"/></clipPath></defs><g clip-path="url(#36fc7e5ff9)"><path fill="#000000" d="M 43.105469 35.804688 C 43.105469 39.347656 45.984375 42.222656 49.527344 42.222656 L 50.6875 42.222656 C 60.417969 42.222656 68.300781 50.113281 68.300781 59.839844 C 54.386719 59.839844 43.105469 71.117188 43.105469 85.03125 L 43.105469 89.214844 C 31.613281 89.214844 22.292969 79.894531 22.292969 68.398438 L 22.292969 30.414062 C 22.292969 18.917969 31.613281 9.601562 43.105469 9.601562 L 53.929688 9.601562 C 64.855469 9.601562 73.714844 18.457031 73.714844 29.382812 L 49.527344 29.382812 C 45.984375 29.382812 43.105469 32.253906 43.105469 35.804688 Z M 43.105469 35.804688 " fill-opacity="1" fill-rule="nonzero"/></g></svg>